HIERARCHY
ROOT hip
{
	OFFSET 0.000000 0.000000 0.000000 
	CHANNELS 6 Xposition Yposition Zposition Xrotation Zrotation Yrotation
	JOINT abdomen
	{
		OFFSET 0.000000 3.402643 0.000000 
		CHANNELS 3 Xrotation Zrotation Yrotation
		JOINT chest
		{
			OFFSET 0.000000 8.438565 -0.680529 
			CHANNELS 3 Xrotation Zrotation Yrotation
			JOINT neck
			{
				OFFSET 0.000000 10.207942 -0.272212 
				CHANNELS 3 Xrotation Zrotation Yrotation
				JOINT head
				{
					OFFSET 0.000000 3.130431 0.000000 
					CHANNELS 3 Xrotation Zrotation Yrotation
					End Site
					{
						OFFSET 0.000000 3.130435 0.000000 
					}
				}
			}
			JOINT lCollar
			{
				OFFSET 3.470700 6.669187 -0.816635 
				CHANNELS 3 Yrotation Zrotation Xrotation
				JOINT lShldr
				{
					OFFSET 3.198488 0.000000 0.000000 
					CHANNELS 3 Zrotation Yrotation Xrotation
					JOINT lForeArm
					{
						OFFSET 10.139888 0.000000 0.000000 
						CHANNELS 3 Yrotation Zrotation Xrotation
						JOINT lHand
						{
							OFFSET 8.370511 0.000000 0.000000 
							CHANNELS 3 Zrotation Yrotation Xrotation
							End Site
							{
								OFFSET 4.083176 0.000000 0.000000 
							}
						}
					}
				}
			}
			JOINT rCollar
			{
				OFFSET -3.470700 6.669187 -0.816635 
				CHANNELS 3 Yrotation Zrotation Xrotation
				JOINT rShldr
				{
					OFFSET -3.198488 0.000000 0.000000 
					CHANNELS 3 Zrotation Yrotation Xrotation
					JOINT rForeArm
					{
						OFFSET -10.139888 0.000000 0.000000 
						CHANNELS 3 Yrotation Zrotation Xrotation
						JOINT rHand
						{
							OFFSET -8.370511 0.000000 0.000000 
							CHANNELS 3 Zrotation Yrotation Xrotation
							End Site
							{
								OFFSET -4.083176 0.000000 0.000000 
							}
						}
					}
				}
			}
		}
	}
	JOINT lThigh
	{
		OFFSET 5.308129 -1.633274 1.361059 
		CHANNELS 3 Xrotation Zrotation Yrotation
		JOINT lShin
		{
			OFFSET -2.041588 -20.007561 0.000000 
			CHANNELS 3 Xrotation Zrotation Yrotation
			JOINT lFoot
			{
				OFFSET 0.000000 -19.190928 -1.224953 
				CHANNELS 3 Xrotation Yrotation Zrotation
				End Site
				{
					OFFSET 0.000000 -2.449906 4.627600 
				}
			}
		}
	}
	JOINT rThigh
	{
		OFFSET -5.308129 -1.633274 1.361059 
		CHANNELS 3 Xrotation Zrotation Yrotation
		JOINT rShin
		{
			OFFSET 2.041588 -20.007561 0.000000 
			CHANNELS 3 Xrotation Zrotation Yrotation
			JOINT rFoot
			{
				OFFSET 0.000000 -19.190928 -1.224953 
				CHANNELS 3 Xrotation Yrotation Zrotation
				End Site
				{
					OFFSET 0.000000 -2.449906 4.627600 
				}
			}
		}
	}
}
MOTION
Frames: 13
Frame Time: 0.033333
246.613358 45.266628 188.050186 2.606024 -6.760644 -109.984894 38.790970 4.081379 -12.642773 -20.839844 0.000000 0.000000 -64.367165 -1.051548 -8.558392 8.603516 0.000000 0.000000 -4.754609 -0.109183 -0.002653 -69.690857 -2.255124 8.486211 -69.960709 -27.879776 31.547848 21.341354 -1.772326 30.680128 4.754609 0.109183 -0.002672 93.139648 -14.627989 -18.520489 30.012661 -3.492585 15.553060 4.677247 18.360861 31.644218 36.492638 6.559330 -57.411415 -5.170746 19.770582 -21.162542 15.139551 105.115089 -29.271606 -17.674858 -25.602285 -17.048996 31.849770 10.623126 4.588919 -4.280097 16.519712 0.774084 
246.141632 45.096729 187.752869 2.615074 -6.614260 -110.116119 38.867863 3.954143 -13.152615 -20.839844 0.000000 0.000000 -64.242378 -0.740753 -9.086869 8.603516 0.000000 0.000000 -4.754609 -0.109183 -0.002653 -69.760933 -5.047059 10.242620 -67.776619 -28.575903 33.739288 21.444794 -2.518838 31.674753 4.754609 0.109183 -0.002672 93.082191 -15.199997 -18.793638 29.563398 -3.378225 15.792047 4.455733 19.158264 31.813868 37.028790 6.469689 -55.525051 -5.113226 19.381540 -20.309862 22.760977 102.851051 -36.992783 -18.641212 -26.206692 -17.274925 35.421455 10.183769 4.428210 -8.509036 15.436069 1.807126 
245.591461 44.918835 187.369598 2.189123 -5.845370 -109.911385 38.359077 3.851892 -13.877089 -20.839844 0.000000 0.000000 -64.297409 -0.709406 -9.724453 8.603516 0.000000 0.000000 -4.754609 -0.109183 -0.002653 -70.364586 -8.971096 12.658867 -65.018875 -29.231762 36.277893 21.333738 -3.641797 32.514866 4.754609 0.109183 -0.002672 92.724136 -15.719641 -19.206066 28.361673 -3.307412 16.254984 4.380874 20.845800 32.657497 36.705833 6.488627 -53.818195 -5.004267 18.686289 -19.715284 33.702942 101.183937 -48.001556 -20.311930 -27.576164 -17.067991 40.020832 10.154263 3.657707 -11.753210 12.127473 3.203470 
244.934860 44.689968 186.862900 1.597047 -4.646640 -109.348526 37.382275 4.075169 -14.938886 -20.839844 0.000000 0.000000 -64.303925 -0.541601 -10.048512 8.603516 0.000000 0.000000 -4.754609 -0.109183 -0.002653 -71.484818 -13.195200 15.189796 -62.518894 -29.544857 38.857265 20.985405 -4.566380 33.773815 4.754609 0.109183 -0.002672 92.166298 -16.944006 -20.228109 27.726202 -3.373251 17.047472 5.060001 22.325729 34.387768 35.857994 7.223025 -53.752880 -4.964791 17.494764 -20.345156 38.237831 102.313858 -52.859245 -22.204903 -29.593864 -17.267546 46.433449 10.382799 3.051622 -13.504148 9.093099 3.608322 
244.107346 44.332188 186.172302 1.183546 -3.251261 -108.749222 36.011024 4.846622 -16.372753 -20.839844 0.000000 0.000000 -63.917328 0.238266 -9.810960 8.603516 0.000000 0.000000 -4.754609 -0.109183 -0.002653 -72.647217 -16.426020 17.086187 -60.868973 -29.501698 40.471645 20.645172 -5.387877 34.558090 4.754609 0.109183 -0.002672 91.487083 -19.310194 -21.939859 29.029150 -3.622254 18.319839 6.859353 22.767099 36.820877 35.234612 8.651409 -54.872833 -5.157832 16.221560 -21.880558 36.392315 105.510612 -51.444859 -24.228327 -31.083174 -16.786978 54.695751 10.087773 3.393521 -14.236700 6.845597 2.441775 
243.057968 43.823486 185.266357 1.133317 -1.708650 -108.618050 34.525665 6.327884 -17.719849 -20.839844 0.000000 0.000000 -63.668407 1.290388 -9.094692 8.603516 0.000000 0.000000 -4.754609 -0.109183 -0.002653 -73.186691 -17.573736 17.739025 -60.904839 -29.535576 40.579590 20.286495 -5.979367 34.648075 4.754609 0.109183 -0.002672 90.122543 -21.873852 -23.636629 31.840918 -3.865524 19.897690 9.111216 22.819262 39.359997 35.192230 10.208148 -55.022297 -5.333292 15.122964 -22.949835 37.524403 108.211243 -52.743057 -25.954851 -30.766581 -15.217233 63.454540 8.876850 3.973183 -13.587345 4.910156 -0.039231 
241.774734 43.277817 184.151016 1.455080 0.078100 -109.363235 32.877689 8.351190 -18.526100 -20.839844 0.000000 0.000000 -63.877350 2.815516 -7.599840 8.603516 0.000000 0.000000 -4.754609 -0.109183 -0.002653 -72.532440 -15.718374 16.752222 -62.694027 -29.900570 39.931446 19.962690 -5.888186 35.133503 4.754609 0.109183 -0.002672 87.028519 -23.087576 -24.265245 34.331257 -3.849787 21.248220 10.583499 23.093554 40.966339 34.947762 11.075741 -51.811745 -4.037726 13.169739 -21.727646 49.298309 108.385368 -64.199539 -25.964668 -28.609467 -13.661986 70.075592 7.665825 4.386115 -10.177592 3.584499 -0.499789 
240.261642 42.772614 182.941223 2.805156 2.379961 -110.586243 31.447744 12.145217 -17.928745 -20.839844 0.000000 0.000000 -64.363533 4.621608 -5.533837 8.603516 0.000000 0.000000 -4.754609 -0.109183 -0.002653 -71.685966 -10.759594 14.621806 -64.348694 -30.261242 38.465916 20.585264 -5.389950 34.273968 4.754609 0.109183 -0.002672 82.142067 -21.239021 -23.138897 35.325802 -3.657596 21.839066 10.686168 23.300379 41.225269 36.790031 7.475021 -31.564524 -3.254663 19.729856 -7.668222 -38.221848 69.402618 26.342720 -22.516272 -24.252245 -12.874645 71.500618 7.743951 4.399853 -6.830417 2.934648 4.042121 
238.585129 42.445313 181.458618 2.339171 3.815187 -114.072479 30.426849 11.385571 -16.047140 -20.839844 0.000000 0.000000 -65.039055 5.892786 -3.712609 8.603516 0.000000 0.000000 -4.754609 -0.109183 -0.002653 -72.083725 -3.848965 11.949258 -63.690777 -29.777565 35.183266 22.829840 -5.858116 28.826431 4.754609 0.109183 -0.002672 77.599251 -15.787009 -20.621235 36.908916 -3.617578 22.090469 10.588456 22.669056 41.092041 31.244553 5.427022 -21.164747 7.684431 12.682033 6.128224 -32.466644 54.409275 26.010763 -16.562040 -20.477274 -11.945875 66.313179 7.274933 3.829861 -10.114700 1.863608 10.898664 
237.140991 41.572323 180.250320 2.421973 5.171183 -117.798279 31.009787 11.088415 -11.678391 -20.839844 0.000000 0.000000 -66.361275 5.741296 -2.448793 8.603516 0.000000 0.000000 -4.754609 -0.109183 -0.002653 -73.394539 3.158152 8.826655 -57.510658 -27.193111 33.962326 25.210617 -7.073318 22.799849 4.754609 0.109183 -0.002672 75.280357 -7.520625 -16.946280 41.947487 -3.592931 22.805252 11.426242 21.100647 41.250156 14.697645 6.815910 -16.163115 38.742531 0.632332 7.542634 -14.597388 43.885544 9.541974 -10.662073 -16.323336 -10.063342 59.439415 6.337578 2.397135 -22.322931 -3.077004 19.431938 
235.735321 40.694843 179.173965 2.053094 6.216741 -121.798256 32.899158 9.421405 -5.620644 -20.839844 0.000000 0.000000 -68.625092 4.382702 -1.350490 8.603516 0.000000 0.000000 -4.754609 -0.109183 -0.002653 -75.243858 9.558215 4.596951 -48.554878 -21.910339 35.221050 25.806519 -5.781863 21.727032 4.754609 0.109183 -0.002672 73.993019 3.422904 -11.704277 48.961147 -2.694424 23.881338 11.737488 19.789474 40.616249 1.307284 15.304716 5.838848 64.713715 1.199266 4.430419 -12.157423 11.886992 13.287456 -5.916805 -13.188546 -8.000195 53.647190 5.175071 -0.107632 -39.743397 -9.527680 17.488438 
234.176743 40.156166 178.106110 1.131698 7.088474 -124.987144 35.139378 6.757408 0.705131 -20.839844 0.000000 0.000000 -71.173088 2.142980 -0.722625 8.603516 0.000000 0.000000 -4.754609 -0.109183 -0.002653 -77.350052 15.119475 -0.686336 -45.970352 -17.403873 31.999638 24.070858 -4.657043 20.510084 4.754609 0.109183 -0.002672 71.862350 15.840008 -5.949696 56.098286 -0.483843 24.698345 10.157243 18.543962 38.610275 -14.549011 14.031384 2.782111 85.213211 3.242897 1.594916 -12.467746 6.809685 13.593994 -3.085595 -13.119599 -7.504529 50.017334 4.355248 -0.193369 -45.599316 -11.090264 17.224333 
232.390808 39.838863 176.938309 -0.266031 7.636636 -126.021362 36.525032 3.755141 5.630311 -20.839844 0.000000 0.000000 -72.686119 -1.126307 -1.708395 8.603516 0.000000 0.000000 -4.754609 -0.109183 -0.002653 -77.994736 19.130339 -4.089639 -48.832714 -16.411299 28.096092 22.544191 -4.141233 18.467588 4.754609 0.109183 -0.002672 68.207947 26.099911 -2.038161 64.647179 2.454843 24.933126 8.133018 15.964259 36.377388 -33.112011 13.953665 0.911130 97.593735 4.060946 0.750884 -16.300985 4.109950 13.575301 0.047779 -14.660028 -8.767551 46.789604 4.390923 0.798464 -46.691830 -9.686000 17.663469 
